<?xml version="1.0" encoding="UTF-8" standalone="no"?>
<!-- Created with Inkscape (http://www.inkscape.org/) -->

<svg
   xmlns:dc="http://purl.org/dc/elements/1.1/"
   xmlns:cc="http://creativecommons.org/ns#"
   xmlns:rdf="http://www.w3.org/1999/02/22-rdf-syntax-ns#"
   xmlns:svg="http://www.w3.org/2000/svg"
   xmlns="http://www.w3.org/2000/svg"
   xmlns:xlink="http://www.w3.org/1999/xlink"
   xmlns:sodipodi="http://sodipodi.sourceforge.net/DTD/sodipodi-0.dtd"
   xmlns:inkscape="http://www.inkscape.org/namespaces/inkscape"
   width="49.299129"
   height="95.953796"
   id="svg2"
   sodipodi:version="0.32"
   inkscape:version="0.47 r22583"
   version="1.0"
   sodipodi:docname="sign_intro.svg"
   inkscape:output_extension="org.inkscape.output.svg.inkscape"
   inkscape:export-filename="/home/mquinson/Code/PLM/lib/resources/pedago_focus/sign_intro.png"
   inkscape:export-xdpi="90"
   inkscape:export-ydpi="90">
  <defs
     id="defs4">
    <inkscape:perspective
       sodipodi:type="inkscape:persp3d"
       inkscape:vp_x="0 : 64 : 1"
       inkscape:vp_y="0 : 1000 : 0"
       inkscape:vp_z="128 : 64 : 1"
       inkscape:persp3d-origin="64 : 42.666667 : 1"
       id="perspective36" />
    <linearGradient
       id="linearGradient2320">
      <stop
         id="stop2322"
         offset="0"
         style="stop-color:#6a3c1d;stop-opacity:1;" />
      <stop
         id="stop2324"
         offset="1"
         style="stop-color:#8f5127;stop-opacity:1;" />
    </linearGradient>
    <linearGradient
       id="linearGradient2338">
      <stop
         id="stop2340"
         offset="0"
         style="stop-color:#b1b1b1;stop-opacity:1;" />
      <stop
         id="stop2342"
         offset="1"
         style="stop-color:#e4e4e4;stop-opacity:1;" />
    </linearGradient>
    <linearGradient
       inkscape:collect="always"
       xlink:href="#linearGradient2320"
       id="linearGradient2370"
       x1="57.118938"
       y1="61.830097"
       x2="61.52211"
       y2="61.830097"
       gradientUnits="userSpaceOnUse" />
    <linearGradient
       inkscape:collect="always"
       xlink:href="#linearGradient2320"
       id="linearGradient2374"
       x1="52.838078"
       y1="53.207214"
       x2="74.487015"
       y2="35.227589"
       gradientUnits="userSpaceOnUse" />
    <linearGradient
       inkscape:collect="always"
       xlink:href="#linearGradient2320"
       id="linearGradient2378"
       x1="51.37035"
       y1="37.979572"
       x2="68.860733"
       y2="32.292141"
       gradientUnits="userSpaceOnUse" />
    <linearGradient
       inkscape:collect="always"
       xlink:href="#linearGradient2320"
       id="linearGradient2382"
       x1="45.132523"
       y1="42.810833"
       x2="49.291077"
       y2="49.660213"
       gradientUnits="userSpaceOnUse" />
    <linearGradient
       inkscape:collect="always"
       xlink:href="#linearGradient2338"
       id="linearGradient2973"
       x1="51.859592"
       y1="105.67836"
       x2="54.428112"
       y2="98.523201"
       gradientUnits="userSpaceOnUse" />
    <linearGradient
       inkscape:collect="always"
       xlink:href="#linearGradient2338"
       id="linearGradient2975"
       x1="64.212936"
       y1="97.544724"
       x2="65.619507"
       y2="95.587753"
       gradientUnits="userSpaceOnUse" />
    <linearGradient
       inkscape:collect="always"
       xlink:href="#linearGradient2338"
       id="linearGradient2977"
       x1="65.619507"
       y1="107.51301"
       x2="70.450768"
       y2="100.66363"
       gradientUnits="userSpaceOnUse" />
    <filter
       inkscape:collect="always"
       id="filter3010"
       x="-0.11784631"
       width="1.2356926"
       y="-0.080986708"
       height="1.1619734"
       color-interpolation-filters="sRGB">
      <feGaussianBlur
         inkscape:collect="always"
         stdDeviation="1.8576336"
         id="feGaussianBlur3012" />
    </filter>
  </defs>
  <sodipodi:namedview
     id="base"
     pagecolor="#ffffff"
     bordercolor="#666666"
     borderopacity="1.0"
     gridtolerance="10000"
     guidetolerance="10"
     objecttolerance="10"
     inkscape:pageopacity="0.0"
     inkscape:pageshadow="2"
     inkscape:zoom="23.225562"
     inkscape:cx="24.649565"
     inkscape:cy="48.672486"
     inkscape:document-units="px"
     inkscape:current-layer="layer2"
     showgrid="false"
     width="744.09px"
     inkscape:window-width="1248"
     inkscape:window-height="975"
     inkscape:window-x="426"
     inkscape:window-y="29"
     inkscape:window-maximized="0" />
  <metadata
     id="metadata7">
    <rdf:RDF>
      <cc:Work
         rdf:about="">
        <dc:format>image/svg+xml</dc:format>
        <dc:type
           rdf:resource="http://purl.org/dc/dcmitype/StillImage" />
        <dc:title></dc:title>
      </cc:Work>
    </rdf:RDF>
  </metadata>
  <g
     inkscape:groupmode="layer"
     id="layer2"
     inkscape:label="colors"
     transform="translate(-33.747744,-16.718693)">
    <path
       style="fill:#000000;fill-opacity:0.62745098;fill-rule:evenodd;stroke:none;filter:url(#filter3010)"
       d="m 48.846288,53.178111 c -3.076367,1.061598 -1.265897,3.675097 -1.942131,5.482429 -1.49438,1.647351 4.279991,4.625282 -0.718665,4.427356 -2.626692,0.702881 -8.79004,-0.341738 -7.630937,2.398268 0.276738,1.647825 -1.194668,3.745795 0.424896,5.095028 1.562992,1.831786 0.205272,4.381265 3.98223,5.514574 2.129809,1.306381 4.89834,-1.064443 7.489814,-1.35067 0.58257,4.093015 1.923563,8.203817 2.258013,12.28487 -0.53001,2.844479 -0.400229,5.815728 0.771594,8.707277 1.785055,2.992166 1.390455,6.102007 2.176455,9.146817 0.689461,2.18414 5.94066,1.50321 8.47204,2.94238 4.023648,1.31834 6.29758,-1.1724 9.924111,-0.87627 4.098577,-0.11991 0.928162,-2.74936 -1.305588,-3.43645 -3.089666,-0.82067 -5.606454,-1.60594 -6.925804,-3.557079 -2.524147,-0.976816 -6.093227,-0.33328 -5.331065,-2.690321 -1.163577,-6.035346 -2.955667,-12.079318 -3.480217,-18.110164 -0.05865,-2.093097 -0.185041,-4.253546 0.12389,-6.281688 3.316126,-1.344628 7.322695,-2.141596 10.818212,-3.359444 2.655672,-1.278208 5.693588,-4.12362 6.143956,-5.646221 -3.36819,-0.775464 -6.889959,-1.339675 -10.027797,-2.471936 -3.255698,0.0043 -6.445067,0.640759 -9.68833,0.865725 -1.446059,-0.755883 -0.938507,-3.118076 -1.559823,-4.507258 -0.814409,-1.397196 0.427059,-3.506858 -1.993809,-4.371736 -0.635179,-0.160327 -1.323781,-0.257164 -1.981045,-0.205487 z m -8.245706,11.549737 c 1.818315,0.725986 2.537086,1.385715 0,0 z m 14.044743,35.340702 c -3.764703,0.55383 -4.958014,2.66318 -6.345394,4.57165 -2.59133,1.43461 0.5261,3.9729 3.539678,2.60932 3.085746,-0.74947 4.561659,-2.12171 3.345473,-4.20961 -0.17992,-0.99045 -0.359839,-1.98091 -0.539757,-2.97136 z m 9.368039,1.68199 c 1.067907,0.23427 -3.653471,0.37509 -0.439538,0.0676 l 0.439538,-0.0676 z m -5.046476,2.84072 c 0.569711,1.09582 0.08923,1.45669 0,0 z"
       id="path2981" />
    <path
       style="fill:url(#linearGradient2370);fill-rule:evenodd;stroke:none"
       d="m 56.996629,18.776847 -1.467725,10.27407 1.345414,4.036242 -0.366931,22.015865 0.244621,17.735003 -1.100793,5.626276 -0.244621,7.827863 0.978483,5.137036 -0.12231,13.576448 2.446207,1.46773 1.712345,-0.12231 -0.978483,-2.20159 0.611552,-3.30238 2.568517,-1.834656 -0.611551,-32.534556 0.366931,-7.583243 1.100793,-8.806346 -1.345414,-18.346554 -0.244621,-13.209519 -1.712345,-1.345414 -1.345414,0 -1.834655,1.590035 z"
       id="path2368" />
    <path
       style="fill:url(#linearGradient2374);fill-rule:evenodd;stroke:none"
       d="m 49.780317,56.448438 0.611552,-8.561725 -1.345414,-1.223104 1.100793,-8.684036 24.217452,-5.870897 8.317105,3.180069 -6.482449,8.684036 -26.419039,12.475657 z"
       id="path2372" />
    <path
       style="fill:url(#linearGradient2378);fill-rule:evenodd;stroke:none"
       d="m 50.269559,37.979573 -3.547001,-2.935448 25.685176,-4.280863 2.446208,1.590035 -24.584383,5.626276 z"
       id="path2376" />
    <path
       style="fill:url(#linearGradient2382);fill-rule:evenodd;stroke:none"
       d="m 50.147248,38.101884 -3.42469,-3.30238 -1.590034,10.885622 0.978483,0.978483 0.489241,6.72707 3.42469,3.30238 0.366931,-8.806346 -1.223103,-1.100793 0.978482,-8.684036 z"
       id="path2380" />
    <path
       id="path2384"
       d="m 50.147248,38.101884 -3.42469,-3.30238 -1.590034,10.885622 0.978483,0.978483 0.489241,6.72707 3.42469,3.30238 0.366931,-8.806346 -1.223103,-1.100793 0.978482,-8.684036 z"
       style="fill:#000000;fill-opacity:0.15686275;fill-rule:evenodd;stroke:none" />
    <path
       id="path2963"
       d="m 50.269559,37.979573 -3.547001,-2.935448 25.685176,-4.280863 2.446208,1.590035 -24.584383,5.626276 z"
       style="fill:#ffffff;fill-opacity:0.1254902;fill-rule:evenodd;stroke:none" />
    <path
       style="fill:#ffffff;fill-opacity:0.1254902;fill-rule:evenodd;stroke:none"
       d="m 58.708974,17.309122 -1.467724,1.100793 0.856172,1.834656 0.978483,0.611552 1.956966,-1.100794 1.100793,-1.100793 -0.733862,-0.856172 -2.690828,-0.489242 z"
       id="path2965" />
    <path
       style="fill:url(#linearGradient2977);fill-rule:evenodd;stroke:none"
       d="m 60.176698,106.47338 -0.611552,-2.81314 0.366931,-2.93545 2.690828,-1.712346 3.18007,-0.489241 2.935449,0.366931 3.180069,1.467726 1.956966,1.10079 1.467724,1.71235 1.223104,1.34541 -0.122311,1.71235 -1.345414,0.85617 -3.057759,-0.12231 -3.302379,2.20158 -4.158553,-0.36693 -4.403173,-2.32389 z"
       id="path2967" />
    <path
       style="fill:url(#linearGradient2975);fill-rule:evenodd;stroke:none"
       d="m 62.255974,98.278582 -0.12231,-4.280863 2.323897,0.122311 2.935449,1.223103 0.856172,1.467725 0.856173,2.323897 -3.913932,-0.733863 -2.813138,0.733863 -0.122311,-0.856173 z"
       id="path2969" />
    <path
       style="fill:url(#linearGradient2973);fill-rule:evenodd;stroke:none"
       d="m 56.140456,95.587754 -3.791621,1.834655 -1.223104,2.079277 -1.956965,3.302384 -1.590035,3.05775 0.489241,1.59004 1.100794,0.73386 2.323896,-0.24462 4.647794,-2.93545 0,-9.417896 z"
       id="path2971" />
    <path
       id="path2979"
       d="m 56.140456,95.587754 -3.791621,1.834655 -1.223104,2.079277 -1.956965,3.302384 -1.590035,3.05775 0.489241,1.59004 1.100794,0.73386 2.323896,-0.24462 4.647794,-2.93545 0,-9.417896 z"
       style="fill:#000000;fill-opacity:0.15686275;fill-rule:evenodd;stroke:none" />
  </g>
  <g
     inkscape:label="outline"
     inkscape:groupmode="layer"
     id="layer1"
     transform="translate(-33.747744,-16.718693)">
    <path
       style="fill:#000000;fill-opacity:1;fill-rule:evenodd;stroke:none"
       d="m 59.890625,16.71875 c -1.23773,0.0085 -2.316514,0.978522 -3.40625,1.875 l -1.21875,9.65625 1.09375,5 -9.96875,1.53125 -1.4375,10.9375 0.875,1.0625 0.53125,6.96875 3.375,3.3125 6.46875,-3.03125 L 56.046875,72.75 C 54.566252,78.833249 54.372613,84.916751 55.890625,91 l -0.03125,4.46875 c -1.309859,0.192894 -2.527901,1.164546 -3.65625,1.84375 -1.032146,1.612586 -2.029467,3.35323 -3.21875,4.90625 -1.958098,2.05012 -2.729487,4.91906 0.09375,6.28125 l 0.03125,0 0.0625,0 c 2.531241,0.0234 5.226064,-1.488 6.90625,-2.75 1.298305,0.74529 2.629509,1.30684 4.125,0.96875 2.118383,1.73595 4.683639,2.47267 7.40625,2.78125 2.406791,-0.0468 4.112902,-1.98935 6.4375,-2.25 1.851593,0.44146 2.589534,-0.30401 2.875,-2.125 -1.673303,-3.63661 -4.670076,-5.30121 -8.125,-6.4375 l 0.125,0 c 0.507107,-3.491097 -3.373152,-4.914657 -6.3125,-4.78125 L 62.515625,64.625 c 0.399178,-4.802347 -0.02687,-9.196312 1.5625,-14.59375 l 12.40625,-5.75 6.5625,-9.28125 -10.8125,-4.46875 c -3.042902,0.476083 -6.290131,1.223085 -9.34375,1.78125 l -0.5625,-14.34375 c -0.896539,-0.918297 -1.694862,-1.255111 -2.4375,-1.25 z m -0.71875,1.1875 c 0.651903,-0.0057 1.372165,0.434928 2.15625,1.15625 l 0.0625,13.3125 c -0.935392,0.169855 -0.937576,0.169788 -1.90625,0.34375 -0.753285,0.135281 -1.375789,0.241647 -2.125,0.375 l -0.71875,-3.96875 0.84375,-9.65625 c 0.452055,-1.104845 1.035597,-1.556818 1.6875,-1.5625 z m 1.9375,1.53125 c -1.060485,0.417352 -2.160011,1.225111 -3.0625,0.0625 l -0.1875,0.375 c 1.052584,2.39383 1.929269,0.866257 3,0.1875 l 0.25,-0.625 z m 10.375,12.09375 1.78125,0.4375 -22.90625,5.34375 -2.65625,-2.09375 c 7.892566,-1.294509 15.916503,-2.235031 23.78125,-3.6875 z m 3.375,1.0625 7.25,2.625 -6.15625,8.21875 -14.46875,6.9375 -0.03125,0 0,0.03125 -10.9375,5.65625 0.125,-8.3125 -1.3125,-0.96875 1.46875,-8.5625 24.0625,-5.625 z m -27.71875,3.21875 2.65625,2.3125 -1.0625,8.5625 1.03125,0.875 0,8.21875 -2.84375,-2.34375 -0.5,-6.65625 -0.875,-1.0625 1.59375,-9.90625 z m 23.0625,1.3125 -2.25,0.03125 -4.59375,3.03125 -1.8125,-1.8125 -2.90625,2.78125 -1.8125,-1.5 -0.59375,3.09375 c -1.135676,-0.237359 -1.889901,-1.271882 -2.65625,-2.0625 l -0.34375,0.0625 c 0.815566,1.552909 1.8244,2.365226 3.40625,2.75 l 0.875,-2.40625 1.0625,0.5 2.96875,-2.8125 1.5625,2.03125 c 2.504618,-1.412369 4.208876,-3.040422 7.21875,-2.6875 l 3.03125,0.375 0.125,-0.03125 -3.125,-1.34375 -0.09375,0 -0.0625,0 z m -1.40625,5.125 -1.09375,2.09375 -1.34375,-0.5625 -0.28125,0.15625 2.0625,1.71875 1.125,-2.15625 0.9375,-0.40625 0.03125,-0.3125 -1.4375,-0.53125 z m -6.6875,2.59375 -2.71875,2.84375 -1.65625,-1.59375 -1.96875,3.3125 -1.09375,-2.03125 -0.375,0.09375 1.46875,3.75 2.34375,-3.8125 1.21875,0.5625 2.65625,-1.96875 0.8125,0.875 0.21875,-0.09375 -0.90625,-1.9375 z M 63.078125,50.5 c -1.7314,5.555218 -1.039105,9.500119 -1.5625,14.25 l 0.125,33.875 c -2.257851,1.169508 -3.135776,3.69282 -2.03125,7.3125 -1.08387,0.47137 -1.829292,-0.19648 -2.84375,-1.40625 l 0.125,-13.15625 C 55.281948,85.166407 55.663316,78.958591 57.046875,72.75 l 0.15625,-19.1875 5.875,-3.0625 z m -0.46875,43.78125 c 2.533413,-0.117036 5.192257,1.887728 5.6875,4.25 -0.666154,-0.207341 -1.340686,-0.410879 -2.03125,-0.59375 -1.379654,-0.135516 -2.604103,-0.02227 -3.625,0.28125 l -0.03125,-3.9375 z m -6.75,1.90625 -0.09375,8.59375 -0.03125,-0.0625 c -1.51633,1.18921 -4.301264,3.36552 -6.5,3.375 -1.94714,-0.99037 -0.780251,-3.75012 0.375,-5.0625 l 0.03125,-0.0312 0.03125,-0.0312 c 1.416477,-1.50785 1.652203,-3.346364 2.59375,-4.96875 0.902576,-0.577395 2.552594,-1.338198 3.59375,-1.8125 z m 10.3125,2.75 c 3.651714,0.641177 8.810093,2.52801 10.1875,6.15625 -0.187225,1.17265 -1.002963,1.20912 -2.0625,1.15625 -2.408948,0.0443 -4.2441,1.71966 -6.46875,2.4375 -2.035886,0.11268 -3.923813,-0.58214 -5.6875,-1.5 l 0.53125,-1.75 0,-0.0312 3.6875,-3.15625 -0.15625,-0.0937 -3.78125,2.625 -0.875,-2.28125 -0.125,0.0937 0.6875,2.65625 -0.78125,1.46875 c -0.329059,-0.1859 -0.646076,-0.36987 -0.96875,-0.5625 -1.741764,-4.78977 1.526101,-7.20867 5.8125,-7.21875 z"
       id="path2316" />
  </g>
</svg>
