<?xml version="1.0" encoding="UTF-8" standalone="no"?>
<!-- Created with Inkscape (http://www.inkscape.org/) -->

<svg
   xmlns:dc="http://purl.org/dc/elements/1.1/"
   xmlns:cc="http://creativecommons.org/ns#"
   xmlns:rdf="http://www.w3.org/1999/02/22-rdf-syntax-ns#"
   xmlns:svg="http://www.w3.org/2000/svg"
   xmlns="http://www.w3.org/2000/svg"
   xmlns:xlink="http://www.w3.org/1999/xlink"
   xmlns:sodipodi="http://sodipodi.sourceforge.net/DTD/sodipodi-0.dtd"
   xmlns:inkscape="http://www.inkscape.org/namespaces/inkscape"
   id="svg2"
   sodipodi:version="0.32"
   inkscape:version="0.47 r22583"
   width="664"
   height="580"
   version="1.0"
   sodipodi:docname="sign_working.svg"
   inkscape:export-filename="/home/mquinson/Code/PLM/lib/resources/pedago_focus/sign_working.png"
   inkscape:export-xdpi="90"
   inkscape:export-ydpi="90">
  <metadata
     id="metadata7">
    <rdf:RDF>
      <cc:Work
         rdf:about="">
        <dc:format>image/svg+xml</dc:format>
        <dc:type
           rdf:resource="http://purl.org/dc/dcmitype/StillImage" />
        <dc:title></dc:title>
      </cc:Work>
    </rdf:RDF>
  </metadata>
  <defs
     id="defs5">
    <inkscape:perspective
       sodipodi:type="inkscape:persp3d"
       inkscape:vp_x="0 : 290 : 1"
       inkscape:vp_y="0 : 1000 : 0"
       inkscape:vp_z="664 : 290 : 1"
       inkscape:persp3d-origin="332 : 193.33333 : 1"
       id="perspective17" />
    <linearGradient
       id="linearGradient3679">
      <stop
         style="stop-color:white;stop-opacity:1;"
         offset="0"
         id="stop3681" />
      <stop
         style="stop-color:white;stop-opacity:0;"
         offset="1"
         id="stop3683" />
    </linearGradient>
    <linearGradient
       inkscape:collect="always"
       xlink:href="#linearGradient3679"
       id="linearGradient3690"
       gradientUnits="userSpaceOnUse"
       x1="202.00739"
       y1="9.5331898"
       x2="424.86841"
       y2="476.73386"
       gradientTransform="matrix(1.02027,0,0,1.02027,-6.60687,-7.885489)" />
    <linearGradient
       inkscape:collect="always"
       xlink:href="#linearGradient3679"
       id="linearGradient2824"
       gradientUnits="userSpaceOnUse"
       gradientTransform="matrix(1.02027,0,0,1.02027,-6.60687,-7.885489)"
       x1="202.00739"
       y1="9.5331898"
       x2="424.86841"
       y2="476.73386" />
  </defs>
  <sodipodi:namedview
     inkscape:window-height="1141"
     inkscape:window-width="1920"
     inkscape:pageshadow="2"
     inkscape:pageopacity="0.0"
     guidetolerance="10.0"
     gridtolerance="10.0"
     objecttolerance="10.0"
     borderopacity="1.0"
     bordercolor="#666666"
     pagecolor="#ffffff"
     id="base"
     inkscape:zoom="0.65"
     inkscape:cx="27.387252"
     inkscape:cy="287.55875"
     inkscape:window-x="0"
     inkscape:window-y="29"
     inkscape:current-layer="svg2"
     showgrid="false"
     inkscape:window-maximized="1" />
  <path
     style="fill:#787878;fill-opacity:1;fill-rule:evenodd;stroke:#000000;stroke-width:1px;stroke-linecap:butt;stroke-linejoin:miter;stroke-opacity:1"
     d="m 302.30769,17.692307 c 14.55955,-25.2178774 43.49613,-25.1516187 58.46154,0.769231 L 660.43239,535.21678 c 12.30105,21.21258 1.399,43.91711 -30.69379,43.91711 l -598.200138,0 c -24.4949658,0 -38.0812014,-25.23834 -28.4130992,-41.98398 L 302.30769,17.692307 z"
     id="path1873"
     sodipodi:nodetypes="czzzzzz" />
  <path
     style="fill:#ff0000;fill-opacity:1;fill-rule:evenodd;stroke:#000000;stroke-width:0.96081984px;stroke-linecap:butt;stroke-linejoin:miter;stroke-opacity:1"
     d="m 303.49751,32.674246 c 17.85776,-30.9305427 37.83278,-31.0236411 56.171,0.739092 L 647.59083,529.92203 c 15.53661,26.9102 1.34418,42.19643 -29.49121,42.19643 l -574.762564,0 c -27.342748,0 -41.2533616,-16.17088 -27.29987,-40.33904 L 303.49751,32.674246 z"
     id="path2760"
     sodipodi:nodetypes="czzzzzz" />
  <path
     style="fill:#fff5ff;fill-opacity:1;fill-rule:evenodd;stroke:#000000;stroke-width:1px;stroke-linecap:butt;stroke-linejoin:miter;stroke-opacity:1"
     d="M 116.92308,502.30769 333.84615,126.15385 546.15385,503.07692 116.92308,502.30769 z"
     id="path2780"
     sodipodi:nodetypes="cccc" />
  <path
     style="fill:#000000;fill-opacity:1;fill-rule:evenodd;stroke:#000000;stroke-width:1px;stroke-linecap:butt;stroke-linejoin:miter;stroke-opacity:1"
     d="m 297.90625,266.0625 c -15.16119,0.1305 -30.33413,1.27247 -33.6875,3.5625 -7.28488,4.97485 -15,46.53126 -15,46.53125 0,0 -10.27521,-9.79524 -13.84375,-5.375 -3.46377,4.29048 11.5625,16.53126 11.5625,16.53125 l 6.53125,10.375 c 0,0 -8.86779,4.70915 -10.40625,8.84375 -1.51638,4.07526 -0.375,69.25 -0.375,69.25 L 228.46875,470 c 0,0 -4.05629,13.49309 10.375,16.53125 14.61539,3.07692 17.31251,-9.59374 17.3125,-9.59375 l 17.3125,-65.40625 -0.78125,-37.3125 31.15625,38.09375 -26.90625,55.75 c 0,0 -6.71794,12.62982 6.90625,18.46875 13.46154,5.76923 18.46876,-6.15624 18.46875,-6.15625 0,0 33.84376,-66.2428 33.84375,-71.53125 0,-5.09616 -8.46876,-17.31249 -8.46875,-17.3125 l 63.84375,51.53125 c 0,0 -12.19231,2.98799 -15.75,13.46875 -8.55769,0.67308 -15.59596,6.88415 -16.15625,15.40625 -11.05769,0.86539 -20.02405,2.59616 -26.5625,15 l 169.625,0 c 0,0 -2.12798,-14.70817 -21.53125,-15.40625 -1.72559,-4.77753 -3.57824,-7.10615 -10.375,-8.0625 1.63413,-22.44153 -14.53482,-21.13806 -21.15625,-20.78125 -15.32429,-25.20783 -39.46636,-18.18813 -48.84375,-5 l -68.09375,-55.375 c 0,0 32.81746,-53.84467 33.09375,-64.625 0.25547,-9.96798 -27.41264,-45.79303 -34.25,-49.21875 -3.30955,-1.65819 -18.46381,-2.53675 -33.625,-2.40625 z m -3.65625,29.46875 -19.5625,20.65625 4.34375,-20.125 15.21875,-0.53125 z m 29.9375,46.78125 -13.0625,24.46875 -14.6875,-12.5 27.75,-11.96875 z"
     id="path2782" />
  <path
     sodipodi:type="arc"
     style="fill:#000000;fill-opacity:1;fill-rule:evenodd;stroke:#000000;stroke-width:1px;stroke-linecap:butt;stroke-linejoin:miter;stroke-opacity:1"
     id="path2788"
     sodipodi:cx="377.48624"
     sodipodi:cy="280.2955"
     sodipodi:rx="21.757132"
     sodipodi:ry="21.757132"
     d="m 399.24337,280.2955 a 21.757132,21.757132 0 1 1 -0.008,-0.59993"
     sodipodi:start="0"
     sodipodi:end="6.2556076"
     sodipodi:open="true" />
  <path
     style="fill:url(#linearGradient2824);fill-opacity:1;fill-rule:evenodd;stroke:none"
     d="M 331.51684,1.8389549 C 321.80566,1.7565692 312.15482,9.6858255 303.04495,25.464572 L 93.634614,389.03125 C 189.34576,318.20576 320.95901,260.93934 475.05602,224.03453 L 360.33946,26.19789 C 350.98449,9.9946155 341.22802,1.9213407 331.51684,1.8389549 z"
     id="path3677" />
</svg>
